<svg xmlns="http://www.w3.org/2000/svg" xmlns:xlink="http://www.w3.org/1999/xlink" width="1080" zoomAndPan="magnify" viewBox="0 0 810 1012.49997" height="1350" preserveAspectRatio="xMidYMid meet" version="1.0"><defs><clipPath id="884e535fc5"><path d="M 0.199219 679 L 317 679 L 317 830 L 0.199219 830 Z M 0.199219 679 " clip-rule="nonzero"/></clipPath><clipPath id="1c8e4ea051"><path d="M 395 326 L 809.800781 326 L 809.800781 567 L 395 567 Z M 395 326 " clip-rule="nonzero"/></clipPath><clipPath id="99dd490f92"><path d="M 397 148.765625 L 684 148.765625 L 684 325 L 397 325 Z M 397 148.765625 " clip-rule="nonzero"/></clipPath></defs><path fill="#843804" d="M 345.726562 791.570312 C 351.84375 798.46875 359.578125 804.132812 367.226562 807.628906 C 378.859375 812.957031 391.671875 815.242188 404.292969 816.859375 C 404.320312 817.714844 404.523438 818.546875 404.898438 819.332031 C 404.898438 819.332031 405.863281 821.59375 405.933594 821.757812 C 406.996094 824.042969 408.46875 826.066406 410.0625 828.015625 C 414.734375 833.703125 420.339844 837.699219 426.863281 841.054688 C 435.792969 845.621094 444.953125 849.6875 454.585938 852.519531 C 454.824219 852.589844 455.253906 852.6875 455.753906 852.828125 C 454.96875 853.734375 454.0625 854.566406 453.089844 855.375 C 450.328125 857.636719 447.117188 859.417969 444.453125 860.703125 C 435.601562 865.035156 425.691406 865.175781 415.859375 865.535156 C 404.257812 865.960938 392.757812 866.628906 382.578125 871.886719 C 375.394531 875.597656 370.296875 881.59375 365.96875 888.300781 C 362.300781 893.988281 359.207031 900.195312 355.351562 905.40625 C 345.808594 918.253906 331.71875 926.152344 316.03125 929.101562 C 306.203125 930.957031 294.503906 930.789062 286.039062 924.867188 C 280.339844 920.871094 276.289062 913.921875 274.910156 906.667969 C 273.609375 899.863281 274.679688 892.65625 279.683594 887.636719 C 282.523438 884.78125 286.703125 882.78125 290.769531 883.089844 C 295.183594 883.449219 299.433594 887.300781 298.019531 891.726562 C 296.988281 894.960938 298.773438 898.433594 302.007812 899.457031 C 305.238281 900.480469 308.699219 898.695312 309.726562 895.460938 C 310.785156 892.15625 310.796875 888.871094 310.007812 885.828125 C 317.015625 882.066406 322.574219 875.238281 326.007812 867.269531 C 330.183594 857.613281 331.160156 846.40625 328.464844 837.984375 C 322.902344 820.617188 305.402344 808.152344 287.539062 806.511719 C 264.851562 804.441406 241.894531 830.085938 259.011719 850.902344 C 261.167969 853.542969 265.042969 853.921875 267.664062 851.757812 C 270.285156 849.617188 270.664062 845.738281 268.507812 843.097656 C 263.941406 837.554688 264.914062 831.441406 268.484375 826.851562 C 272.53125 821.664062 279.558594 818.144531 286.421875 818.761719 C 299.589844 819.953125 312.65625 828.945312 316.757812 841.742188 C 318.664062 847.691406 317.675781 855.566406 314.722656 862.417969 C 312.253906 868.125 308.402344 873.242188 303.207031 875.5 C 300.003906 872.882812 296.011719 871.195312 291.753906 870.839844 C 284.179688 870.242188 276.257812 873.667969 270.972656 878.976562 C 267.335938 882.640625 264.886719 886.96875 263.503906 891.65625 C 262.917969 891.394531 262.398438 891.15625 262.003906 890.941406 C 255.402344 887.609375 248.828125 884.183594 241.992188 881.332031 C 233.039062 877.59375 223.628906 873.765625 213.773438 873.742188 C 207.019531 873.71875 200.273438 875.074219 193.535156 876.191406 C 187.828125 877.144531 182.128906 877.953125 176.421875 876.929688 C 165.703125 875.027344 155.921875 867.601562 148.023438 860.441406 C 145.027344 857.730469 142.28125 854.78125 139.824219 851.570312 C 138.195312 849.425781 136.691406 847.191406 135.308594 844.90625 C 135.121094 844.597656 134.792969 844.027344 134.398438 843.3125 C 139.394531 843.671875 144.445312 843.503906 149.382812 842.789062 C 163.117188 840.886719 176.304688 835.628906 187.988281 828.230469 C 201.5625 819.640625 213.835938 807.082031 227.039062 796.445312 C 239.03125 786.789062 251.792969 778.699219 267.605469 778.035156 C 283.238281 777.367188 298.484375 782.910156 313.304688 787.167969 C 324.078125 790.261719 334.609375 793.140625 345.726562 791.570312 Z M 345.726562 791.570312 " fill-opacity="1" fill-rule="evenodd"/><g clip-path="url(#884e535fc5)"><path fill="#843804" d="M 129.804688 803.773438 C 127.316406 803.84375 124.503906 803.941406 124.503906 803.941406 C 119.527344 803.703125 114.425781 803.15625 109.84375 801.109375 C 103.394531 798.207031 97.84375 793.496094 92.550781 788.90625 C 87.304688 784.335938 82.046875 779.53125 75.0625 777.914062 C 65.9375 775.773438 57.453125 779.128906 48.511719 780.175781 C 39.832031 781.199219 30.371094 779.34375 22.320312 776.105469 C 14.378906 772.917969 6.628906 767.992188 0.53125 761.808594 C 2.707031 761.617188 4.867188 761.261719 7.023438 760.738281 C 20.464844 757.527344 33.683594 751.363281 44.828125 743.226562 C 57.792969 733.757812 68.066406 721.4375 78.921875 709.828125 C 88.917969 699.144531 99.414062 689.082031 113.648438 683.207031 C 128.949219 676.902344 143.621094 680.183594 158.050781 685.703125 C 174.152344 691.839844 189.980469 700.785156 205.90625 704.996094 C 214.890625 707.375 224.078125 708.472656 233.355469 707.6875 C 236.3125 707.449219 239.378906 706.78125 242.441406 706.375 C 244.621094 706.089844 246.796875 705.878906 248.890625 706.425781 C 251.542969 707.089844 253.667969 708.804688 255.625 710.730469 C 258.25 713.300781 260.539062 716.320312 262.800781 718.914062 C 267.757812 724.625 273.574219 729.667969 279.738281 734.019531 C 289.148438 740.683594 300.027344 745.84375 310.851562 749.722656 C 312.84375 750.460938 314.847656 751.148438 316.859375 751.816406 C 316 755.789062 314.476562 759.523438 312.21875 762.925781 C 310.378906 765.664062 308.007812 767.660156 305.054688 769.113281 C 304.03125 769.613281 303.210938 770.375 302.628906 771.277344 C 291 767.992188 279.132812 765.234375 267.085938 765.757812 C 248.554688 766.542969 233.386719 775.558594 219.332031 786.882812 C 206.492188 797.207031 194.613281 809.484375 181.414062 817.859375 C 172.710938 823.355469 163.0625 827.539062 152.96875 829.707031 C 152.140625 828.921875 151.1875 828.230469 150.457031 827.351562 C 145.816406 821.6875 141.546875 813.933594 141.886719 806.460938 C 142.125 801.277344 145.554688 796.113281 150.035156 792.640625 C 154.214844 789.40625 159.480469 787.527344 164.316406 789.453125 C 167.09375 790.570312 169.226562 793.140625 169.652344 796.113281 C 170.269531 800.445312 168.046875 805.464844 163.417969 805.367188 C 160.027344 805.320312 157.222656 808.007812 157.15625 811.410156 C 157.089844 814.789062 159.789062 817.597656 163.179688 817.667969 C 175.542969 817.90625 183.464844 805.914062 181.820312 794.375 C 181.613281 792.925781 181.238281 791.5 180.714844 790.117188 C 182.589844 788.574219 184.171875 786.621094 185.527344 784.648438 C 190.136719 777.914062 192.746094 769.613281 192.886719 761.453125 C 193.246094 740.230469 176.511719 721.269531 156.734375 715.558594 C 150 713.632812 142.738281 712.894531 135.828125 714.394531 C 123.054688 717.128906 111.824219 727.765625 112.015625 741.609375 C 112.132812 750.246094 117.171875 757.644531 124.230469 761.878906 C 131.222656 766.066406 140.085938 767.089844 147.671875 763.59375 C 150.746094 762.164062 152.089844 758.5 150.664062 755.410156 C 149.234375 752.339844 145.578125 751.007812 142.503906 752.433594 C 138.632812 754.21875 134.125 753.480469 130.558594 751.339844 C 127.066406 749.246094 124.363281 745.703125 124.304688 741.417969 C 124.195312 733.546875 131.136719 727.980469 138.421875 726.410156 C 143.347656 725.335938 148.523438 725.980469 153.328125 727.359375 C 168.050781 731.617188 180.863281 745.441406 180.59375 761.261719 C 180.496094 767.019531 178.65625 772.917969 175.390625 777.699219 C 174.742188 778.652344 174.054688 779.628906 173.1875 780.414062 C 171.855469 779.460938 170.410156 778.652344 168.882812 778.058594 C 160.019531 774.511719 150.175781 777.011719 142.511719 782.933594 C 135.757812 788.144531 130.867188 795.972656 129.804688 803.773438 Z M 129.804688 803.773438 " fill-opacity="1" fill-rule="evenodd"/></g><path fill="#843804" d="M 363.246094 632.578125 C 353.203125 638.789062 342.257812 643.546875 330.9375 646.78125 C 318.746094 650.28125 304.988281 652.277344 294.992188 660.722656 C 294.828125 660.867188 294.660156 661.007812 294.496094 661.128906 C 293.722656 661.269531 292.96875 661.558594 292.285156 661.984375 C 292.003906 662.054688 291.742188 662.128906 291.589844 662.175781 C 290.148438 662.699219 288.683594 663.148438 287.238281 663.671875 C 282.90625 665.21875 278.667969 667.171875 274.683594 669.476562 C 264.597656 675.308594 255.398438 684.347656 248.519531 693.957031 C 243.160156 693.554688 237.578125 695.003906 232.328125 695.433594 C 225.441406 696.027344 218.625 695.363281 211.925781 693.839844 C 211.851562 693.746094 211.78125 693.648438 211.707031 693.554688 C 210.734375 692.363281 208.582031 690.222656 208.335938 689.960938 C 206.070312 686.632812 204.476562 682.871094 204.117188 678.828125 C 203.839844 675.640625 204.386719 672.40625 205.710938 669.476562 C 206.949219 666.742188 208.773438 664.269531 211.230469 662.53125 C 216.867188 658.535156 225.03125 659.890625 228.5 666.003906 C 230.546875 669.621094 228.640625 674.164062 224.464844 674.664062 C 221.09375 675.070312 218.691406 678.136719 219.101562 681.515625 C 219.503906 684.871094 222.566406 687.273438 225.9375 686.871094 C 239.003906 685.300781 245.574219 671.359375 239.253906 660.058594 C 252.414062 652.277344 254.917969 633.769531 250.242188 619.589844 C 244.097656 600.988281 225.019531 587.425781 205.210938 588.972656 C 199.535156 589.425781 193.828125 590.921875 188.796875 593.636719 C 184.742188 595.800781 181.179688 598.796875 178.359375 602.4375 C 173.273438 608.980469 170.15625 617.902344 173.300781 626.0625 C 176.5625 634.554688 185.179688 640.265625 193.996094 641.289062 C 203.367188 642.359375 212.679688 638.410156 216.441406 628.25 C 217.621094 625.085938 215.992188 621.542969 212.8125 620.351562 C 209.632812 619.1875 206.09375 620.804688 204.914062 623.992188 C 203.351562 628.203125 199.300781 629.511719 195.40625 629.058594 C 190.957031 628.558594 186.417969 625.941406 184.773438 621.660156 C 183.195312 617.570312 185.511719 613.261719 188.066406 609.980469 C 189.832031 607.71875 192.0625 605.816406 194.601562 604.460938 C 198.144531 602.558594 202.179688 601.558594 206.175781 601.222656 C 220.46875 600.105469 234.136719 610.027344 238.570312 623.445312 C 240.378906 628.941406 240.835938 635.457031 239.175781 641 C 237.8125 645.546875 234.902344 649.398438 229.773438 650.804688 C 221.894531 646.664062 211.863281 647.019531 204.136719 652.492188 C 200.390625 655.132812 197.425781 658.726562 195.3125 662.769531 C 194.363281 662.960938 193.574219 663.175781 193.574219 663.175781 C 193.574219 663.175781 193.828125 663.078125 193.910156 663.054688 C 192.308594 663.507812 190.671875 663.863281 189.023438 664.125 C 183.945312 664.957031 178.523438 664.601562 173.585938 663.175781 C 166.441406 661.058594 160.015625 657.582031 153.472656 654.394531 C 146.082031 650.753906 138.546875 647.449219 130.011719 646.117188 C 115.921875 643.878906 102.050781 648.519531 87.96875 647.664062 C 75.09375 646.878906 64.742188 638.644531 56.292969 629.441406 C 55.570312 628.65625 54.835938 627.84375 54.109375 627.035156 C 57.136719 627.226562 60.179688 627.109375 63.242188 626.703125 C 79.390625 624.632812 94.929688 617.257812 107.660156 607.316406 C 119 598.417969 127.804688 586.570312 137.261719 575.578125 C 145.78125 565.683594 154.832031 556.449219 167.589844 551.691406 C 178.53125 547.601562 188.714844 549.21875 198.679688 552.503906 C 209.941406 556.238281 220.953125 562.089844 232.3125 565.894531 C 245.210938 570.203125 258.707031 572.890625 272.304688 573.582031 C 282.144531 574.054688 292.414062 572.867188 302.0625 575.292969 C 308.21875 576.863281 313.3125 580.074219 318.4375 583.667969 C 321.328125 585.714844 324.191406 588.164062 327.332031 589.996094 C 327.277344 590.710938 327.234375 591.421875 327.207031 592.136719 C 326.902344 599.34375 328.179688 606.339844 331.589844 612.714844 C 337.628906 624.039062 350.351562 631.769531 363.246094 632.578125 Z M 363.246094 632.578125 " fill-opacity="1" fill-rule="evenodd"/><path fill="#843804" d="M 455.417969 583.597656 C 441.527344 586.285156 428.117188 590.351562 415.757812 595.941406 C 407.871094 599.511719 400.855469 604.246094 394.105469 609.382812 C 394.867188 599.011719 388.691406 588.257812 378.085938 583.523438 C 374.988281 582.121094 371.351562 583.523438 369.964844 586.617188 C 368.578125 589.710938 369.96875 593.351562 373.0625 594.730469 C 381.78125 598.632812 385.414062 610.289062 377.203125 616.59375 C 365.867188 625.277344 348.726562 618.734375 342.433594 606.933594 C 340.074219 602.507812 339.277344 597.65625 339.488281 592.660156 C 339.738281 586.761719 340.90625 580.742188 343.648438 575.460938 C 352.085938 559.210938 367.636719 551.882812 384.324219 550.671875 C 401.769531 549.433594 420.492188 554.738281 434.4375 564.0625 C 441.597656 568.847656 448.28125 574.746094 453.660156 581.503906 C 454.136719 582.097656 454.777344 582.8125 455.417969 583.597656 Z M 455.417969 583.597656 " fill-opacity="1" fill-rule="evenodd"/><path fill="#843804" d="M 414.601562 747.128906 C 430.125 751.125 446.355469 752.03125 462.34375 750.339844 C 476.617188 748.820312 492.699219 744.25 505.332031 735.925781 C 518.820312 727.050781 528.433594 714.011719 528.835938 696.078125 C 528.953125 690.769531 528.144531 685.464844 526.433594 680.421875 C 522.984375 670.167969 515.917969 661.320312 507.234375 654.992188 C 499.574219 649.398438 490.558594 645.785156 481.230469 644.117188 C 474.070312 642.855469 466.503906 642.644531 459.34375 644.046875 C 453.945312 645.09375 448.734375 647.140625 444.332031 650.445312 C 430.652344 660.652344 428.121094 680.136719 438.933594 693.386719 C 449.636719 706.519531 471.027344 709.375 482.421875 695.527344 C 484.585938 692.910156 484.207031 689.035156 481.589844 686.871094 C 478.972656 684.726562 475.09375 685.085938 472.929688 687.703125 C 466.503906 695.527344 454.492188 693.03125 448.449219 685.632812 C 442.074219 677.804688 443.621094 666.316406 451.683594 660.296875 C 454.609375 658.105469 458.109375 656.796875 461.675781 656.109375 C 467.386719 654.992188 473.382812 655.203125 479.089844 656.226562 C 486.5625 657.558594 493.816406 660.414062 499.980469 664.910156 C 506.640625 669.765625 512.160156 676.496094 514.800781 684.347656 C 516.035156 688.035156 516.632812 691.914062 516.535156 695.8125 C 516.226562 709.304688 508.734375 718.984375 498.574219 725.671875 C 487.558594 732.925781 473.5 736.78125 461.035156 738.113281 C 442.5 740.089844 423.621094 738.234375 406.164062 731.570312 C 384.03125 723.125 364.667969 709.421875 341.917969 702 C 325.757812 696.71875 304.277344 691.4375 286.210938 695.242188 C 286.507812 694.363281 286.832031 693.484375 287.171875 692.601562 C 290.53125 684.109375 295.910156 676.019531 302.917969 670.121094 C 311.589844 662.792969 323.746094 661.628906 334.316406 658.605469 C 348.816406 654.445312 362.746094 648.019531 375.203125 639.480469 C 390.644531 628.894531 403.503906 614.976562 420.820312 607.148438 C 457.300781 590.660156 503.523438 588.304688 542.371094 596.179688 C 563.214844 600.414062 582.863281 608.695312 603.464844 613.808594 C 620.832031 618.09375 637.582031 618.019531 654.925781 613.761719 C 656.328125 613.429688 659.0625 612.261719 661.988281 611.335938 C 662.824219 611.050781 663.988281 610.789062 664.890625 610.621094 C 665.128906 612.453125 664.796875 614.570312 664.367188 616.734375 C 663.132812 622.800781 660.277344 629.128906 658.445312 633.007812 C 652.140625 646.234375 642.363281 656.011719 631.585938 664.816406 C 620.046875 674.1875 607.367188 682.492188 596.019531 692.199219 C 567.257812 716.75 548.367188 750.839844 520.011719 775.890625 C 490.582031 801.871094 444.878906 809.578125 406.726562 804.773438 C 395.042969 803.320312 383.117188 801.394531 372.335938 796.445312 C 363.617188 792.472656 354.710938 785.027344 349.640625 776.128906 C 345.078125 768.136719 343.734375 758.859375 349.585938 750.199219 C 351.679688 747.082031 354.417969 744.371094 357.445312 742.179688 C 360.851562 739.707031 364.667969 737.875 368.710938 736.734375 C 377.414062 734.257812 385.441406 736.996094 393.269531 741.824219 C 396.492188 743.824219 399.5 746.25 401.597656 749.035156 C 403.949219 752.148438 405.035156 755.8125 402.917969 759.714844 C 400.820312 763.617188 397.144531 766.304688 392.957031 767.613281 L 388.441406 768.421875 C 387.890625 768.421875 387.328125 768.492188 386.773438 768.636719 C 383.492188 769.492188 381.53125 772.847656 382.394531 776.128906 C 382.65625 777.128906 383.960938 780.839844 388.636719 780.746094 C 389.902344 780.722656 395.945312 779.53125 396.25 779.4375 C 403.644531 777.25 410.046875 772.394531 413.734375 765.566406 C 417.234375 759.074219 417.078125 752.769531 414.601562 747.128906 Z M 414.601562 747.128906 " fill-opacity="1" fill-rule="evenodd"/><path fill="#843804" d="M 563.972656 583.90625 C 564.046875 584.808594 564.09375 585.714844 564.117188 586.59375 C 564.117188 586.761719 564.070312 588.019531 564.046875 589.042969 C 560.667969 588.042969 557.289062 587.09375 553.863281 586.238281 C 550.867188 585.453125 547.84375 584.761719 544.824219 584.144531 C 523.722656 579.859375 500.574219 578.457031 477.804688 580.457031 C 474.738281 580.742188 471.644531 581.074219 468.597656 581.476562 C 468.335938 580.835938 468.003906 580.171875 467.625 579.527344 C 466.386719 577.457031 464.460938 575.339844 463.269531 573.816406 C 457.109375 566.109375 449.472656 559.332031 441.265625 553.835938 C 432.519531 548.007812 422.144531 543.535156 411.265625 540.894531 C 411.292969 540.867188 411.320312 540.867188 411.347656 540.84375 C 415.609375 538.941406 419.632812 536.347656 422.761719 532.828125 C 431.765625 522.742188 429.878906 509.15625 422.925781 498.6875 C 412.941406 483.699219 393.457031 472.164062 376.585938 484.414062 C 373.839844 486.390625 373.230469 490.242188 375.21875 492.980469 C 377.210938 495.738281 381.058594 496.355469 383.804688 494.359375 C 388.707031 490.789062 393.9375 490.957031 398.664062 493.003906 C 404.28125 495.453125 409.242188 500.332031 412.691406 505.515625 C 416.597656 511.367188 418.644531 518.980469 413.589844 524.644531 C 411.617188 526.878906 409.019531 528.425781 406.332031 529.640625 C 401.648438 531.734375 396.472656 532.804688 391.363281 533.089844 C 386.183594 533.375 380.941406 532.78125 375.933594 531.421875 C 371.832031 530.328125 367.839844 528.785156 364.140625 526.714844 C 359.644531 524.191406 355.394531 520.886719 352.785156 516.363281 C 348.617188 509.15625 349.074219 500.902344 348.113281 492.90625 C 347.128906 484.699219 345.0625 476.613281 341.417969 469.140625 C 337.160156 460.433594 330.898438 452.441406 323.300781 446.375 C 320.507812 444.160156 317.535156 442.28125 314.417969 440.617188 C 333.058594 429.410156 354.90625 429.199219 374.761719 436.453125 C 379.148438 438.046875 383.4375 440.023438 387.574219 442.304688 C 388.128906 442.617188 388.679688 442.925781 389.234375 443.257812 C 396.304688 447.375 402.816406 452.367188 409.570312 456.890625 C 416.789062 461.71875 424.28125 466 433.03125 468.09375 C 447.1875 471.449219 461.9375 470.472656 476.332031 471.902344 C 482.96875 472.566406 490.367188 473.519531 495.648438 477.945312 C 500.074219 481.632812 500.550781 487.175781 501.144531 492.765625 C 502.023438 500.996094 502.714844 509.417969 507.210938 516.054688 C 508.113281 517.410156 509.136719 518.671875 510.207031 519.863281 C 517.058594 527.378906 526.980469 532.136719 535.308594 537.585938 C 546.84375 545.128906 555.980469 554.40625 560.691406 567.632812 C 560.976562 568.488281 561.261719 569.347656 561.523438 570.226562 C 562.878906 574.652344 563.6875 579.289062 563.972656 583.90625 Z M 563.972656 583.90625 " fill-opacity="1" fill-rule="evenodd"/><g clip-path="url(#1c8e4ea051)"><path fill="#843804" d="M 395.515625 432.695312 C 414.238281 413.019531 439.527344 404.457031 465.625 393.84375 C 490.699219 383.640625 512.707031 367.867188 535.425781 353.902344 C 556.957031 340.722656 579.128906 329.183594 605.726562 326.710938 C 623.519531 325.066406 640.339844 328.777344 656.992188 333.585938 C 674.695312 338.699219 692.226562 345.074219 710.425781 348.453125 C 738.214844 353.617188 766.359375 354.589844 794.382812 350.714844 C 799.449219 350 804.539062 348.90625 809.65625 348.214844 C 806.753906 353.664062 803.066406 358.753906 799.519531 363.773438 C 790.648438 376.359375 780.988281 388.777344 769.234375 398.816406 C 756.863281 409.453125 742.328125 417.136719 729.648438 427.339844 C 716.539062 437.90625 707.453125 451.679688 699.148438 466.097656 C 691.441406 479.441406 684.425781 493.359375 674.835938 505.300781 C 648.738281 537.777344 612.433594 555.546875 573.394531 566.96875 C 573.039062 565.800781 572.679688 564.660156 572.253906 563.515625 C 566.640625 547.648438 555.886719 536.347656 542.039062 527.308594 C 533.691406 521.859375 523.148438 517.671875 517.394531 509.15625 C 515.726562 506.707031 514.894531 503.898438 514.371094 500.925781 C 519.558594 503.351562 524.71875 505.660156 529.929688 507.730469 C 556.910156 518.554688 584.433594 523.429688 613.503906 508.300781 C 620.953125 504.421875 627.851562 499.332031 633.65625 493.265625 C 639.746094 486.914062 644.550781 479.394531 647.738281 471.1875 C 667.628906 419.800781 612.53125 370.578125 562.785156 388.992188 C 554.816406 391.941406 547.296875 396.722656 542.085938 403.550781 C 524.839844 426.269531 539.730469 456.058594 564.996094 463.359375 C 573.988281 465.953125 584.363281 465.835938 592.59375 460.933594 C 593.378906 460.457031 597.613281 457.699219 599.066406 455.746094 C 600.898438 453.273438 600.992188 450.773438 600.492188 448.894531 C 599.492188 445.207031 595.6875 443.019531 591.976562 444.019531 C 590.023438 444.566406 588.476562 445.898438 587.621094 447.5625 C 586.90625 448.0625 585.71875 448.894531 585.503906 449.015625 C 580.554688 451.964844 574.277344 451.609375 568.851562 450.039062 C 552.601562 445.351562 542.039062 426.558594 553.148438 411.949219 C 556.742188 407.191406 562.070312 404.050781 567.613281 402.003906 C 606.703125 387.515625 650.453125 425.773438 634.796875 466.167969 C 632.277344 472.6875 628.46875 478.632812 623.640625 483.675781 C 618.882812 488.648438 613.21875 492.8125 607.105469 496 C 582.03125 509.039062 558.335938 504.183594 535.070312 494.859375 C 527.480469 491.8125 519.914062 488.316406 512.347656 484.699219 C 511.089844 478.46875 508.6875 472.804688 503.523438 468.5 C 496.363281 462.527344 486.539062 460.578125 477.542969 459.671875 C 463.699219 458.292969 449.496094 459.363281 435.863281 456.128906 C 420.175781 452.417969 409.074219 440.59375 395.515625 432.695312 Z M 395.515625 432.695312 " fill-opacity="1" fill-rule="evenodd"/></g><path fill="#843804" d="M 557.003906 326.304688 C 547.082031 330.921875 537.566406 336.34375 528.195312 342.101562 C 516.773438 349.097656 505.570312 356.589844 494.054688 363.585938 C 497.027344 356.304688 497.125 348.027344 494.699219 340.746094 C 490.628906 328.542969 479.828125 319.238281 464.4375 321.378906 C 460.628906 321.902344 457.988281 325.425781 458.511719 329.207031 C 459.058594 332.988281 462.558594 335.65625 466.339844 335.109375 C 474.140625 334.035156 479.472656 338.960938 481.542969 345.125 C 483.730469 351.714844 482.539062 359.824219 476.496094 364.605469 C 459.296875 378.167969 436.03125 369.746094 425.710938 351.855469 C 418.332031 339.082031 418.054688 322.664062 425.738281 309.914062 C 436.269531 292.453125 453.613281 286.8125 471.835938 287.3125 C 491.390625 287.882812 512.015625 295.402344 527.574219 304.226562 C 535.757812 308.867188 543.992188 313.980469 551.054688 320.238281 C 553.171875 322.117188 555.171875 324.140625 557.003906 326.304688 Z M 557.003906 326.304688 " fill-opacity="1" fill-rule="evenodd"/><g clip-path="url(#99dd490f92)"><path fill="#843804" d="M 676.289062 324.949219 C 671.125 323.355469 666.011719 321.761719 660.847656 320.261719 C 642.53125 314.957031 624.019531 311.101562 604.441406 312.910156 C 592.308594 314.027344 580.984375 316.859375 570.207031 320.808594 C 569.515625 319.761719 568.730469 318.761719 567.945312 317.789062 C 565.59375 314.933594 563 312.316406 560.261719 309.867188 C 552.460938 302.96875 543.445312 297.257812 534.402344 292.140625 C 526.3125 287.574219 517.011719 283.339844 507.164062 280.058594 C 507.355469 279.960938 507.542969 279.867188 507.734375 279.796875 C 523.671875 272.277344 535.117188 253.910156 529.480469 236.046875 C 526.625 227.003906 519.175781 219.175781 510.375 215.441406 C 500.976562 211.445312 490.273438 211.945312 481.875 219.511719 C 479.019531 222.082031 478.78125 226.457031 481.351562 229.3125 C 483.898438 232.167969 488.296875 232.382812 491.128906 229.835938 C 495.195312 226.171875 500.40625 226.265625 504.949219 228.195312 C 510.113281 230.40625 514.585938 234.902344 516.25 240.207031 C 519.796875 251.414062 511.824219 262.546875 501.835938 267.234375 C 496.433594 269.777344 490.320312 270.636719 484.394531 270.207031 C 479.210938 269.828125 474.117188 268.472656 469.335938 266.449219 C 461.199219 263 452.207031 257.195312 448.855469 248.652344 C 446.1875 241.824219 447.757812 233.808594 446.996094 226.648438 C 445.664062 213.683594 441.667969 201.144531 434.007812 190.464844 C 426.800781 180.421875 416.828125 172.214844 405.984375 166.339844 C 403.222656 164.863281 400.375 163.605469 397.503906 162.390625 C 399.359375 161.464844 401.101562 160.726562 402.203125 160.15625 C 414.996094 153.707031 429.550781 148.664062 444.023438 148.804688 C 454.015625 148.902344 464.625 151.160156 472.476562 157.632812 C 477.472656 161.75 481.492188 167.03125 485.917969 171.789062 C 491.367188 177.617188 497.386719 182.683594 505.355469 185.253906 C 522.078125 190.628906 539.683594 188.988281 556.980469 188.582031 C 572.015625 188.226562 586.8125 188.84375 600.160156 198.457031 C 605.320312 202.191406 609.414062 206.972656 611.960938 212.800781 C 614.242188 218.011719 615.648438 223.601562 617.453125 228.980469 C 619.621094 235.402344 622.308594 241.5625 626.851562 246.871094 C 635.128906 256.601562 646.050781 262.453125 656.542969 268.828125 C 665.296875 274.15625 673.765625 279.867188 678.855469 290.144531 C 682.519531 297.519531 684.375 306.417969 682.234375 314.503906 C 681.59375 316.882812 680.332031 319.097656 678.621094 320.878906 C 678.023438 321.5 677.382812 322.070312 676.714844 322.59375 C 676.976562 322.378906 677.859375 321.878906 677.859375 321.878906 C 677.859375 321.878906 677.074219 323.164062 676.289062 324.949219 Z M 676.289062 324.949219 " fill-opacity="1" fill-rule="evenodd"/></g></svg>