<svg xmlns="http://www.w3.org/2000/svg" xmlns:xlink="http://www.w3.org/1999/xlink" width="1080" zoomAndPan="magnify" viewBox="0 0 810 1012.49997" height="1350" preserveAspectRatio="xMidYMid meet" version="1.0"><defs><clipPath id="355c765b56"><path d="M 11.828125 338 L 797 338 L 797 680 L 11.828125 680 Z M 11.828125 338 " clip-rule="nonzero"/></clipPath></defs><path fill="#fa6602" d="M 318.234375 359.730469 C 318.023438 358.519531 309.996094 362.417969 309.8125 362.496094 C 301.433594 366.257812 293.011719 369.933594 284.707031 373.847656 C 262.457031 384.335938 240.707031 395.886719 218.335938 406.148438 C 177.339844 424.953125 133.703125 438.445312 93.480469 458.859375 C 85.542969 462.882812 58.980469 474.8125 63.839844 487.773438 C 67.664062 498.035156 87.714844 501.34375 96.546875 503.863281 C 130.136719 513.441406 165.257812 519.375 195.992188 536.84375 C 222.554688 551.929688 252.667969 562.34375 278.363281 578.460938 C 290.292969 585.945312 297.152344 597.496094 307.914062 605.691406 C 315.308594 611.320312 325.15625 609.03125 333.230469 612.734375 C 356.695312 623.449219 378.691406 641.148438 406.238281 638.898438 C 443.484375 635.878906 472.214844 607.664062 507.703125 599.621094 C 538.921875 592.53125 573.332031 595.1875 601.941406 578.644531 C 628.777344 563.132812 637.761719 530.484375 661.152344 511.175781 C 678.984375 496.441406 701.386719 490.082031 723.730469 485.953125 C 728.148438 485.132812 749.820312 484.433594 752.007812 479.335938 C 752.949219 477.164062 747.042969 474.691406 745.933594 474.128906 C 736.84375 469.5 726.949219 466.222656 717.113281 463.5625 C 677.574219 452.894531 633.753906 460.179688 599.285156 434.058594 C 582.242188 421.140625 571.664062 402.03125 555.117188 388.691406 C 530.710938 369.007812 493.433594 366.105469 464.839844 377.6875 C 451.9375 382.910156 435.058594 392.882812 434.515625 408.652344 C 434.179688 418.183594 434.257812 428.335938 434.421875 437.898438 C 434.4375 438.703125 435.304688 446.898438 433.875 446.625 C 427.230469 445.289062 422.039062 431.996094 417.015625 427.894531 C 409.605469 421.839844 399.089844 421.703125 392.304688 414.78125 C 378.660156 400.878906 378.78125 375.183594 356.074219 372.148438 C 349.730469 371.3125 343.203125 371.496094 336.84375 371.691406 C 329.9375 371.921875 323.199219 372.496094 316.414062 373.800781 " fill-opacity="1" fill-rule="nonzero"/><path fill="#eb9800" d="M 290.398438 575.09375 C 290.777344 574.941406 289.199219 570.917969 289.125 570.75 C 287.183594 566.335938 283.738281 562.480469 280.277344 559.1875 C 268.46875 547.894531 252.878906 540.363281 236.714844 538.117188 C 219.488281 535.71875 200.484375 539.152344 184.5625 530.605469 C 167.09375 521.242188 156.832031 502.238281 139.667969 492.007812 C 131.910156 487.363281 123.304688 484.601562 114.515625 482.644531 C 113.578125 482.445312 105.363281 481.703125 104.96875 480.835938 C 104.757812 480.398438 112.742188 478.832031 113.167969 478.757812 C 121.363281 477.375 129.542969 476.996094 137.832031 477.574219 C 159.109375 479.0625 178.28125 476.480469 197.449219 466.34375 C 210.410156 459.480469 219.957031 448.980469 228.972656 437.65625 C 246.734375 415.34375 266.039062 394.050781 293.464844 383.773438 C 324.703125 372.058594 361.023438 385.929688 369.355469 420.078125 C 375.488281 445.214844 356.027344 468.816406 332.945312 476.359375 C 325.234375 478.878906 313.257812 481.898438 306.351562 475.890625 C 298.050781 468.664062 299.902344 449.875 311.328125 446.414062 C 320.742188 443.574219 311.117188 463.6875 319.40625 461.121094 C 331.5 457.371094 342.945312 446.171875 346.070312 433.890625 C 347.378906 428.761719 347.710938 422.433594 343.628906 418.394531 C 338.589844 413.417969 328.859375 412.460938 322.226562 412.082031 C 314.230469 411.609375 305.941406 412.339844 298.582031 415.664062 C 280.535156 423.828125 263.003906 449.023438 274.722656 468.421875 C 281.929688 480.351562 296.804688 488.457031 309.902344 491.933594 C 344.28125 501.070312 383.652344 484.539062 397.617188 450.800781 C 401.640625 441.085938 402.703125 430.507812 402.351562 420.078125 C 402.019531 410.441406 400.316406 400.742188 395.339844 392.335938 C 383.457031 372.207031 357.578125 363.269531 335.828125 359.535156 C 293.359375 352.25 250.042969 368.078125 216.132812 393.277344 C 190.378906 412.414062 167.761719 436.394531 139.058594 451.40625 C 128.601562 456.871094 117.417969 460.621094 105.835938 462.867188 C 92.617188 465.417969 78.773438 466.539062 66.722656 473.082031 C 60.042969 476.707031 47.917969 485.589844 49.328125 494.710938 C 50.191406 500.296875 58.222656 500.082031 62.367188 500.203125 C 78.226562 500.703125 93.707031 500.71875 108.566406 507.171875 C 134.582031 518.464844 145.3125 547.589844 170.570312 559.519531 C 178.203125 563.132812 186.808594 565.152344 195.265625 565.058594 C 211.730469 564.878906 227.214844 559.09375 243.53125 564.46875 C 254.882812 568.203125 260.515625 576.125 267.511719 584.882812 " fill-opacity="1" fill-rule="nonzero"/><path fill="#eb9800" d="M 474.386719 424.4375 C 474.507812 425.710938 472.792969 426.546875 472.535156 427.789062 C 471.503906 432.738281 473.171875 439.417969 477.847656 442.058594 C 484.632812 445.898438 496.441406 435.878906 498.625 448.160156 C 500.054688 456.203125 491.675781 462.488281 484.34375 462.03125 C 474.980469 461.453125 465.339844 454.488281 460.089844 447.082031 C 448.539062 430.839844 452.925781 407.574219 470.0625 397.207031 C 485.785156 387.691406 507.945312 385.535156 525.203125 391.941406 C 548.988281 400.773438 552.933594 420.71875 565.410156 439.765625 C 574.941406 454.289062 589.9375 467.054688 606.132812 473.398438 C 629.21875 482.445312 652.179688 479.894531 676.222656 479.457031 C 681.398438 479.363281 698.777344 478.421875 702.34375 484.359375 C 702.890625 485.285156 700.175781 484.449219 699.097656 484.480469 C 696.515625 484.585938 693.949219 484.917969 691.402344 485.328125 C 684.738281 486.4375 678.136719 487.925781 671.609375 489.6875 C 652.46875 494.890625 631.191406 503.042969 618.089844 518.660156 C 601.257812 538.757812 592.363281 567.683594 564.4375 575.714844 C 539.804688 582.789062 516.261719 566.59375 492.234375 579.738281 C 477.695312 587.675781 471.246094 601 459.496094 611.671875 C 443.46875 626.210938 418.046875 632.84375 396.902344 629.429688 C 388.796875 628.125 380.949219 625.5 373.5 622.082031 C 368.082031 619.59375 362.480469 616.542969 358.578125 611.929688 C 345.691406 596.675781 360.019531 576.519531 373.226562 567.199219 C 376.261719 565.058594 379.644531 563.753906 383.304688 563.132812 C 391.300781 561.75 411.457031 560.628906 419.230469 563.175781 C 429.898438 566.683594 429.355469 576.140625 421.371094 582.363281 C 417.773438 585.15625 413.523438 587.691406 409.273438 589.34375 C 409.074219 589.421875 401.925781 592.257812 402.09375 592.335938 C 404.597656 593.59375 412.734375 588.980469 414.917969 588.113281 C 427.335938 583.183594 447.429688 567.425781 437.308594 551.839844 C 432.949219 545.144531 422.917969 543.082031 415.679688 541.683594 C 397.191406 538.105469 379.996094 543.355469 364.710938 553.933594 C 355.058594 560.613281 346.542969 569.355469 335.8125 574.363281 C 321.40625 581.085938 305.09375 576.898438 290.324219 581.96875 C 284.570312 583.941406 276.648438 588.644531 279.578125 595.917969 C 282.734375 603.808594 292.523438 609.394531 299.628906 613.082031 C 318.023438 622.628906 338.453125 625.074219 357.730469 631.980469 C 367.167969 635.363281 375.167969 641.433594 384.320312 645.410156 C 400.363281 652.363281 419.09375 652.789062 435.804688 647.960938 C 459.316406 641.160156 476.921875 618.605469 501.402344 614.707031 C 513.058594 612.855469 524.777344 617.242188 536.386719 617.847656 C 557.257812 618.957031 579.054688 613.597656 596.828125 602.566406 C 613.234375 592.378906 622.613281 575.515625 634.773438 561.1875 C 643.421875 551.003906 653.851562 542.992188 665.296875 536.160156 C 690.476562 521.164062 714.835938 511.707031 744.070312 509.75 C 750.609375 509.3125 769.550781 509.675781 772.085938 501.234375 C 774.441406 493.433594 764.726562 483.613281 759.609375 479.351562 C 742.171875 464.808594 718.765625 456.355469 696.863281 451.542969 C 668.816406 445.382812 637.929688 445.972656 611.808594 432.722656 C 593.714844 423.554688 581.46875 405.433594 566.699219 392 C 538.132812 366 502.449219 355.058594 464.824219 368.203125 C 453.199219 372.269531 442.664062 379.402344 435.183594 389.269531 C 418.015625 411.882812 418.972656 445.015625 434.878906 467.9375 C 452.074219 492.738281 488.472656 506.09375 514.09375 486.285156 C 532.699219 471.898438 537.574219 446.550781 527.085938 425.679688 C 516.292969 404.234375 490.460938 408 478.773438 425.921875 " fill-opacity="1" fill-rule="nonzero"/><path fill="#f4bd2f" d="M 471.851562 426.300781 C 471.730469 426.316406 471.578125 429.519531 471.5625 429.734375 C 471.488281 432.664062 472.308594 436.777344 475.996094 436.746094 C 487.578125 436.652344 495.257812 415.753906 508.082031 425.695312 C 509.601562 426.863281 510.84375 428.351562 511.816406 429.992188 C 513.242188 432.34375 514.230469 435 514.789062 437.6875 C 520.695312 466.191406 491.296875 490.277344 464.871094 478.195312 C 434.542969 464.339844 424.148438 417.742188 446.6875 393.261719 C 464.914062 373.484375 496.378906 367.957031 521.695312 374.015625 C 540.714844 378.554688 556.695312 390.390625 569.734375 404.613281 C 586.429688 422.8125 599.242188 444.59375 621.550781 456.78125 C 655.882812 475.539062 696.167969 459.96875 731.457031 473.535156 C 744.21875 478.4375 756.285156 487.453125 764.800781 498.09375 C 766.242188 499.902344 767.59375 501.765625 768.898438 503.648438 C 772.542969 508.945312 781.753906 527.644531 787.433594 514.636719 C 788.039062 513.226562 788.523438 511.769531 788.917969 510.28125 C 794.109375 490.640625 780.023438 477.800781 765.667969 467.117188 C 758.699219 461.925781 751.640625 456.855469 743.402344 453.894531 C 715.109375 443.726562 683.691406 447.277344 654.824219 438.808594 C 642.574219 435.226562 630.476562 430.734375 621.003906 421.824219 C 608.136719 409.699219 601.5625 392.546875 589.207031 379.917969 C 562.996094 353.085938 528.527344 341.09375 491.417969 346.753906 C 479.183594 348.621094 467.691406 352.675781 457.191406 359.292969 C 445.382812 366.714844 434.226562 376.566406 426.378906 388.175781 C 410.59375 411.503906 413.113281 445.003906 429.75 467.328125 C 445.714844 488.761719 479.457031 500.660156 504.757812 490.429688 C 523.882812 482.703125 534.523438 461.546875 535.449219 441.679688 C 535.949219 430.566406 532.898438 419.167969 523.925781 412.003906 C 508.855469 399.9375 477.589844 399.332031 470.683594 421.339844 " fill-opacity="1" fill-rule="nonzero"/><path fill="#f4bd2f" d="M 408.347656 587.402344 C 407.785156 587.765625 408.410156 586.082031 408.363281 585.414062 C 408.273438 584.214844 407.742188 583.015625 407.042969 582.042969 C 405.113281 579.371094 400.53125 576.746094 397.238281 578.128906 C 393.351562 579.765625 392.636719 585.046875 392.894531 588.691406 C 393.519531 597.34375 400.394531 602.261719 408.605469 602.988281 C 435.46875 605.402344 441.722656 561.3125 420.824219 549.683594 C 417.683594 547.9375 414.25 546.710938 410.761719 545.859375 C 388.660156 540.472656 377.6875 559.199219 363.164062 571.90625 C 357.0625 577.234375 349.59375 581.269531 342.171875 584.394531 C 334.855469 587.476562 327.25 589.875 319.40625 591.164062 C 316.597656 591.636719 313.757812 592 310.90625 592.089844 C 307.261719 592.214844 304.226562 592.257812 306.972656 594.703125 C 307.839844 595.460938 308.703125 596.234375 309.585938 596.996094 C 311.070312 598.285156 312.574219 599.589844 314.078125 600.863281 C 316.898438 603.246094 319.785156 605.523438 322.726562 607.753906 C 327.449219 611.308594 332.246094 614.78125 337.101562 618.121094 C 345.269531 623.722656 353.585938 629.078125 362.539062 633.359375 C 377.703125 640.628906 393.746094 645.914062 410.746094 643.894531 C 427.410156 641.9375 444.363281 636.0625 457.980469 626.179688 C 470.925781 616.800781 482.15625 603.808594 498.15625 599.636719 C 512.847656 595.808594 525.839844 602.246094 540.167969 604.292969 C 557.5 606.785156 578.339844 601.625 592.851562 591.925781 C 608.515625 581.453125 619.09375 564.785156 631.175781 550.699219 C 647.429688 531.742188 665.8125 514.972656 688.367188 503.800781 C 694.496094 500.765625 700.855469 498.15625 707.382812 496.105469 C 713.726562 494.101562 720.253906 492.660156 726.839844 491.703125 C 731.972656 490.945312 737.148438 490.492188 742.339844 490.519531 C 746.785156 490.550781 751.246094 490.929688 755.632812 491.734375 C 767.414062 493.875 788.875 502.480469 792.105469 516.792969 C 793.199219 521.636719 784.851562 519.359375 782.695312 518.902344 C 771.128906 516.535156 759.867188 513.878906 748 513.484375 C 719.890625 512.574219 697.183594 523.273438 676.421875 541.503906 C 663.914062 552.507812 651.117188 563.632812 640.007812 576.0625 C 623.722656 594.246094 610.125 613.660156 585.761719 621.507812 C 576.003906 624.648438 566.046875 624.375 555.9375 624.679688 C 543.007812 625.058594 530.058594 625.984375 517.128906 625.921875 C 507.1875 625.878906 496.199219 624.496094 486.652344 627.910156 C 478.925781 630.675781 472.472656 636.152344 465.917969 640.890625 C 454.5625 649.070312 443.226562 657.707031 430.796875 664.1875 C 423.328125 668.070312 415.328125 671.230469 407.117188 673.050781 C 372.132812 680.808594 343.234375 657.675781 316.355469 638.886719 C 306.957031 632.3125 297.546875 625.742188 289.171875 617.878906 C 282.21875 611.367188 276.011719 603.929688 268.253906 598.300781 C 263.898438 595.128906 259.058594 593.214844 253.941406 591.695312 C 253.09375 591.453125 249.007812 590.9375 248.707031 589.890625 C 248.417969 588.875 251.574219 587.613281 252.121094 587.339844 C 257.070312 584.835938 262.09375 582.46875 267.101562 580.117188 C 286.226562 571.144531 306.550781 566.972656 327.265625 563.542969 C 332.972656 562.585938 338.847656 561.855469 344.085938 559.230469 C 352.78125 554.84375 359.582031 547.363281 367.292969 541.5625 C 380.449219 531.652344 396.023438 525.550781 412.671875 527.539062 C 428.625 529.4375 448.023438 538.878906 454.625 554.375 C 465.324219 579.476562 440.539062 609.910156 416.421875 614.644531 C 396.3125 618.605469 381.710938 602.125 382.195312 582.9375 C 382.410156 574.742188 384.667969 565.832031 392 561.113281 C 399.910156 556.027344 411.457031 556.40625 419.503906 561.082031 C 429.125 566.667969 425.011719 576.851562 416.894531 581.453125 C 412.734375 583.820312 408.121094 585.277344 403.476562 586.382812 " fill-opacity="1" fill-rule="nonzero"/><path fill="#f4bd2f" d="M 275.464844 581.527344 C 276.480469 580.449219 274.203125 575.335938 273.703125 574.46875 C 270.089844 568.082031 263.566406 564.011719 257.402344 560.414062 C 244.972656 553.144531 232.070312 548.453125 217.574219 547.878906 C 202.914062 547.300781 187.886719 550.167969 173.636719 545.433594 C 150.277344 537.695312 139.089844 513.53125 120.4375 499.308594 C 101.8125 485.117188 81.6875 485.132812 59.589844 487.195312 C 46.003906 488.472656 27.972656 487.894531 22.601562 503.648438 C 19.261719 513.453125 35.210938 512.695312 40.660156 512.527344 C 61.167969 511.875 85.496094 503.847656 105.363281 511.390625 C 116.355469 515.5625 122.425781 525.519531 128.96875 534.597656 C 137.222656 546.027344 147.195312 558.015625 160.113281 564.253906 C 171.707031 569.839844 186.355469 574.957031 199.363281 574.636719 C 209 574.410156 218.746094 569.960938 228.398438 571.480469 C 241.328125 573.515625 253.820312 581.511719 264.398438 588.917969 " fill-opacity="1" fill-rule="nonzero"/><path fill="#f4bd2f" d="M 62.214844 492.34375 C 62.761719 492.707031 62.578125 491.035156 62.941406 490.492188 C 63.59375 489.488281 64.414062 488.625 65.25 487.789062 C 68.226562 484.691406 71.5625 481.976562 75.039062 479.472656 C 84.890625 472.324219 96.273438 465.902344 108.21875 463.15625 C 118.402344 460.800781 128.921875 461.714844 139.242188 460.5 C 156.683594 458.449219 174.757812 452.273438 189.238281 442.238281 C 216.40625 423.375 232.328125 391.410156 261.757812 375.367188 C 276.40625 367.382812 293.921875 364.679688 310.433594 365.164062 C 348.347656 366.289062 395.308594 398.984375 381.785156 442.042969 C 379.765625 448.492188 376.625 454.671875 372.726562 460.179688 C 367.714844 467.253906 361.324219 473.292969 353.949219 477.832031 C 339.226562 486.863281 320.847656 488.835938 304.5625 482.871094 C 293.496094 478.804688 285.421875 469.542969 286.558594 457.203125 C 287.652344 445.214844 298.292969 435.667969 308.371094 430.476562 C 312.269531 428.472656 317.8125 426.042969 322.0625 428.550781 C 330.5 433.542969 323.261719 447.1875 319.417969 452.621094 C 317.628906 455.171875 315.625 457.570312 313.847656 460.132812 C 313.546875 460.589844 312.011719 462.746094 313.425781 462.851562 C 318.691406 463.261719 325.492188 456.128906 328.664062 452.847656 C 339.847656 441.285156 350.125 421.808594 332.398438 410.777344 C 299.597656 390.347656 252.257812 421.792969 264.445312 460.195312 C 266.296875 466.039062 269.195312 471.578125 273.125 476.300781 C 309.765625 520.285156 377.550781 505.199219 395.765625 461.578125 C 405.707031 437.792969 415.707031 404.824219 398.332031 383.972656 C 380.148438 362.160156 349.078125 355.375 322.257812 352.386719 C 311.464844 351.1875 300.722656 350.703125 289.882812 351.640625 C 276.832031 352.765625 263.777344 355.632812 252.667969 362.875 C 241.574219 370.097656 232.527344 380.070312 223.144531 389.300781 C 206.570312 405.601562 189.148438 422.265625 167.199219 430.902344 C 141.882812 440.875 115.824219 442.285156 89.519531 447.734375 C 75.769531 450.585938 59.90625 454.609375 49.980469 465.25 C 40.085938 475.859375 35.605469 492.371094 31.828125 506.03125 " fill-opacity="1" fill-rule="nonzero"/><g clip-path="url(#355c765b56)"><path fill="#f8ba7d" d="M 251.574219 584.941406 C 244.957031 577.050781 235.320312 575.882812 225.378906 575.367188 C 215.496094 574.847656 205.585938 576.125 195.734375 576.550781 C 184.835938 577.035156 174.03125 576.488281 163.4375 572.300781 C 147.210938 565.894531 135.980469 552.21875 123.929688 540.273438 C 113.074219 529.511719 100.339844 519.511719 84.949219 516.71875 C 70.046875 514.015625 53.925781 516.460938 39.296875 519.617188 C 36.398438 520.238281 29.507812 522.5 24.117188 522.925781 C 20.414062 523.230469 17.195312 522.605469 15.042969 521.332031 C 13.75 520.574219 11.71875 518.84375 11.914062 515.304688 C 12.019531 513.378906 15.132812 505.320312 15.300781 504.941406 C 20.066406 493.632812 27.078125 482.992188 34.984375 473.671875 C 51.589844 454.125 74.570312 442.210938 99.429688 436.777344 C 114.320312 433.511719 129.605469 433.117188 144.371094 429.082031 C 162.90625 424.011719 179.765625 414.859375 194.09375 402.046875 C 211.277344 386.671875 225.300781 367.988281 244.773438 355.179688 C 281.550781 330.984375 335.296875 336.039062 372.890625 355.238281 C 386.597656 362.238281 400.984375 377.886719 408.300781 391.546875 C 409.636719 394.035156 410.804688 396.554688 411.808594 399.074219 C 415.027344 389.601562 420.035156 380.679688 426.941406 372.859375 C 468.117188 326.171875 543.824219 332.199219 587.039062 371.449219 C 599.300781 382.574219 608.136719 396.160156 618.105469 408.332031 C 627.152344 419.351562 637.15625 429.203125 652.515625 434.042969 C 671.820312 440.144531 692.523438 439.628906 712.375 441.617188 C 734.035156 443.804688 754.679688 448.828125 772.011719 466.023438 C 777.914062 471.882812 782.804688 478.757812 786.808594 486.027344 C 792.699219 496.742188 798.085938 510.222656 795.6875 522.742188 C 795.308594 524.761719 794.125 528.3125 792.789062 530.179688 C 792.5 530.574219 789.285156 534.507812 784.609375 531.988281 C 783.878906 531.59375 780.40625 529.359375 780.253906 529.269531 C 777.839844 527.765625 775.410156 526.324219 772.875 525.003906 C 766.242188 521.558594 759.472656 519.085938 751.945312 518.675781 C 726.75 517.292969 699.65625 527.890625 678.789062 541.230469 C 666.371094 549.167969 654.824219 559.171875 646.308594 571.253906 C 640.890625 578.933594 636.394531 587.386719 631.097656 595.128906 C 625.242188 603.671875 618.425781 611.351562 608.894531 616.632812 C 589.328125 627.472656 564.042969 633.359375 541.761719 633.085938 C 525.019531 632.875 507.640625 628.03125 491.007812 631.554688 C 477.800781 634.363281 469.4375 644.304688 459.589844 652.683594 C 447.171875 663.246094 432.390625 674.050781 416.238281 677.785156 C 381.527344 685.785156 343.476562 665.917969 317.855469 644.210938 C 307.019531 635.046875 297.65625 624.148438 286.316406 615.570312 C 278.96875 610.03125 271.0625 606.496094 262.410156 603.519531 C 260.363281 602.824219 255.625 601.746094 252.347656 600.273438 C 249.753906 599.117188 247.824219 597.570312 246.808594 596.113281 C 246.445312 595.582031 243.941406 591.347656 247.855469 587.8125 C 248.339844 587.355469 250.4375 585.792969 251.574219 584.941406 Z M 411.566406 452.863281 C 410.273438 456.550781 408.757812 460.269531 407.011719 464.019531 C 398.617188 482.097656 380.039062 496.667969 358.578125 504.589844 C 337.253906 512.453125 313.210938 513.710938 294.027344 505.941406 C 277.679688 499.339844 264.871094 484.449219 259.238281 467.527344 C 253.488281 450.285156 255.171875 431.070312 267.449219 416.285156 C 274.691406 407.574219 285.359375 401.609375 296.152344 398.574219 C 302.875 396.675781 309.949219 395.824219 316.929688 396.339844 C 342.71875 398.269531 361.828125 422.433594 347.574219 447.1875 C 341.578125 457.613281 330.015625 462.898438 319.011719 466.039062 C 315.703125 466.980469 312.242188 465.066406 311.285156 461.742188 C 310.34375 458.433594 312.269531 454.972656 315.578125 454.03125 C 323.578125 451.742188 332.382812 448.539062 336.753906 440.949219 C 345.9375 424.996094 332.625 410.046875 316.003906 408.800781 C 310.464844 408.394531 304.863281 409.105469 299.535156 410.59375 C 291.113281 412.960938 282.703125 417.46875 277.058594 424.269531 C 267.648438 435.589844 266.691406 450.375 271.078125 463.578125 C 275.585938 477.089844 285.664062 489.09375 298.703125 494.359375 C 315.214844 501.039062 335.902344 499.644531 354.253906 492.875 C 372.480469 486.148438 388.539062 474.113281 395.671875 458.753906 C 405.644531 437.320312 407.742188 416.984375 397.28125 397.433594 C 391.042969 385.792969 378.902344 372.328125 367.214844 366.363281 C 333.292969 349.046875 284.8125 343.796875 251.636719 365.621094 C 232.691406 378.082031 219.140625 396.386719 202.414062 411.351562 C 186.644531 425.46875 168.082031 435.546875 147.667969 441.132812 C 132.699219 445.230469 117.1875 445.667969 102.101562 448.980469 C 79.910156 453.835938 59.332031 464.308594 44.5 481.761719 C 37.414062 490.125 31.085938 499.644531 26.820312 509.78125 C 26.804688 509.8125 26.789062 509.859375 26.757812 509.917969 C 30.703125 509.128906 34.679688 507.824219 36.667969 507.398438 C 52.847656 503.921875 70.699219 501.433594 87.183594 504.421875 C 105.0625 507.671875 120.117188 518.902344 132.714844 531.394531 C 143.582031 542.171875 153.386719 554.90625 168.035156 560.6875 C 176.929688 564.210938 186.035156 564.46875 195.203125 564.074219 C 205.433594 563.632812 215.753906 562.359375 226.03125 562.890625 C 239.707031 563.585938 252.5625 566.304688 261.5625 577.414062 C 261.730469 577.640625 261.894531 577.855469 262.03125 578.097656 C 263.019531 577.519531 264.003906 576.960938 264.992188 576.414062 C 284.964844 565.363281 306.183594 567.015625 327.691406 562.191406 C 341.398438 559.109375 351.371094 548.804688 361.902344 539.757812 C 374.410156 528.980469 387.554688 519.753906 405.628906 520.738281 C 411.566406 521.058594 417.332031 522.167969 422.933594 524.15625 C 428.625 526.171875 433.921875 529.089844 438.65625 532.835938 C 456.050781 546.601562 460.726562 571.3125 454.535156 591.710938 C 448.191406 612.640625 430.839844 628.808594 405.371094 624.832031 C 387.964844 622.113281 375.578125 606.328125 372.832031 589.9375 C 369.960938 572.859375 377.082031 555.527344 398.042969 551.1875 C 402.824219 550.199219 407.878906 550.398438 412.628906 551.429688 C 415.191406 551.992188 417.957031 552.933594 420.324219 554.085938 C 427.488281 557.636719 430.507812 562.386719 431.3125 567.046875 C 432.101562 571.675781 430.597656 576.671875 427.289062 581.195312 C 421.902344 588.570312 411.609375 594.671875 403.839844 595.71875 C 400.425781 596.175781 397.28125 593.761719 396.828125 590.347656 C 396.371094 586.929688 398.769531 583.789062 402.183594 583.332031 C 407.195312 582.667969 413.734375 578.582031 417.210938 573.816406 C 418.335938 572.285156 419.277344 570.734375 419.003906 569.15625 C 418.730469 567.59375 417.195312 566.484375 414.78125 565.300781 C 413.3125 564.558594 411.582031 563.980469 409.957031 563.632812 C 406.90625 562.964844 403.65625 562.78125 400.578125 563.421875 C 387.460938 566.136719 383.347656 577.1875 385.140625 587.871094 C 387.054688 599.238281 395.21875 610.609375 407.300781 612.492188 C 425.726562 615.359375 437.988281 603.230469 442.589844 588.085938 C 447.339844 572.390625 444.289062 553.222656 430.902344 542.625 C 427.246094 539.726562 423.144531 537.480469 418.757812 535.933594 C 414.28125 534.339844 409.683594 533.460938 404.960938 533.203125 C 390.390625 532.425781 380.132812 540.546875 370.039062 549.230469 C 357.972656 559.609375 346.148438 570.84375 330.425781 574.378906 C 310.085938 578.949219 289.914062 576.898438 271.03125 587.339844 C 268.863281 588.539062 266.722656 589.816406 264.628906 591.152344 C 265.355469 591.347656 265.992188 591.546875 266.480469 591.710938 C 276.390625 595.113281 285.4375 599.253906 293.84375 605.613281 C 305.363281 614.3125 314.925781 625.363281 325.929688 634.679688 C 348.804688 654.046875 382.453125 672.746094 413.433594 665.613281 C 427.683594 662.320312 440.539062 652.484375 451.484375 643.164062 C 462.925781 633.4375 473.082031 622.585938 488.410156 619.335938 C 505.941406 615.617188 524.277344 620.382812 541.929688 620.597656 C 562.128906 620.855469 585.078125 615.542969 602.851562 605.707031 C 610.609375 601.410156 616.027344 595.019531 620.792969 588.070312 C 626.121094 580.28125 630.644531 571.769531 636.09375 564.058594 C 645.535156 550.65625 658.296875 539.5 672.066406 530.695312 C 695.011719 516.035156 724.914062 504.683594 752.628906 506.199219 C 761.976562 506.714844 770.417969 509.644531 778.644531 513.925781 C 780.40625 514.835938 782.121094 515.808594 783.820312 516.824219 C 784.109375 508.1875 779.886719 499.355469 775.867188 492.054688 C 772.4375 485.816406 768.261719 479.910156 763.207031 474.886719 C 748.121094 459.921875 729.984375 455.945312 711.117188 454.046875 C 690.445312 451.96875 668.875 452.316406 648.75 445.957031 C 630.839844 440.296875 618.988281 429.09375 608.453125 416.238281 C 598.859375 404.539062 590.4375 391.394531 578.644531 380.691406 C 540.230469 345.800781 472.914062 339.621094 436.304688 381.117188 C 406.417969 415.011719 418.121094 473.855469 461.046875 489.566406 C 468.210938 492.191406 475.90625 493.648438 483.507812 492.371094 C 492.722656 490.839844 501.085938 485.875 507.746094 479.441406 C 515.367188 472.09375 521.863281 463.230469 525.960938 453.441406 C 532.835938 436.957031 526.175781 414.875 507.871094 409.394531 C 494.679688 405.449219 478.226562 412.976562 478.332031 427.609375 C 478.363281 431.054688 475.585938 433.875 472.140625 433.890625 C 468.679688 433.921875 465.871094 431.144531 465.839844 427.699219 C 465.660156 404.628906 490.628906 391.210938 511.453125 397.433594 C 536.890625 405.039062 547.058594 435.332031 537.480469 458.253906 C 532.746094 469.605469 525.261719 479.910156 516.429688 488.425781 C 507.960938 496.605469 497.273438 502.738281 485.574219 504.695312 C 475.8125 506.335938 465.949219 504.667969 456.75 501.296875 C 433.984375 492.964844 418.515625 474.417969 411.566406 452.863281 Z M 411.566406 452.863281 " fill-opacity="1" fill-rule="evenodd"/></g></svg>